<svg xmlns="http://www.w3.org/2000/svg" width="24.104" height="28.05" viewBox="0 0 24.104 28.05">
  <path id="icons8-apple-logo" d="M26.171,20.857a20.272,20.272,0,0,1-1.821,3.4c-1.183,1.8-2.853,4.049-4.917,4.064-1.836.015-2.31-1.2-4.8-1.178s-3.012,1.2-4.85,1.182c-2.065-.019-3.645-2.044-4.829-3.842-3.31-5.043-3.66-10.954-1.614-14.1a7.325,7.325,0,0,1,5.889-3.54c2.19,0,3.567,1.2,5.378,1.2,1.757,0,2.827-1.207,5.361-1.207a7.156,7.156,0,0,1,5.389,2.845A6.167,6.167,0,0,0,26.171,20.857ZM18.042,4.831A6.146,6.146,0,0,0,19.408.277a6.653,6.653,0,0,0-4.289,2.306,5.71,5.71,0,0,0-1.4,4.441A5.588,5.588,0,0,0,18.042,4.831Z" transform="translate(-2.067 -0.277)" fill="#fff"/>
</svg>
