<svg xmlns="http://www.w3.org/2000/svg" width="30.122" height="32.194" viewBox="0 0 30.122 32.194">
  <path id="icons8-google-play" d="M3.234,3.2A2.752,2.752,0,0,0,3,4.3V32.89a2.554,2.554,0,0,0,.184.919L17.353,19.057a.837.837,0,0,0,0-1.16ZM31.825,16.356l-4.118-2.329a.844.844,0,0,0-1.021.146L23.108,17.9a.837.837,0,0,0,0,1.16l3.544,3.69a.845.845,0,0,0,1.021.146c2.482-1.406,4.155-2.351,4.155-2.351A2.471,2.471,0,0,0,33.122,18.4,2.423,2.423,0,0,0,31.825,16.356ZM7.043,2.329l12.584,13.1a.836.836,0,0,0,1.207,0l2.549-2.652a.83.83,0,0,0-.182-1.3C16.619,7.754,8.459,3.137,7.043,2.329ZM19.627,21.522l-12.487,13c2.145-1.22,9.8-5.553,16.027-9.078a.831.831,0,0,0,.182-1.3l-2.515-2.619A.836.836,0,0,0,19.627,21.522Z" transform="translate(-3 -2.329)" fill="#fff"/>
</svg>
