<svg xmlns="http://www.w3.org/2000/svg" xmlns:xlink="http://www.w3.org/1999/xlink" width="70.012" height="56.02" viewBox="0 0 70.012 56.02"><defs><linearGradient id="a" x1="0.857" y1="0.065" x2="0.255" y2="1.056" gradientUnits="objectBoundingBox"><stop offset="0" stop-color="#02c672"/><stop offset="1" stop-color="#02c672"/></linearGradient></defs><g transform="translate(1653 1065.02)"><path d="M50.7,8V46h-18v6a8,8,0,1,1-16,0s-.172-33.464-.347-45.439A3.9,3.9,0,0,0,15,4.1H46.7A4,4,0,0,1,50.7,8Zm-9.1,8h-16a2,2,0,0,0,0,4h16a2,2,0,0,0,0-4Zm0,8h-12a2,2,0,0,0,0,4h12a2,2,0,1,0,0-4Z" transform="translate(-1660.147 -1069)" fill="#4347b0"/><g transform="translate(-1620.505 -1071.54)"><path d="M41.423,26.077a17.09,17.09,0,0,0-3.086.515,16.984,16.984,0,0,0,2.2.612,11.328,11.328,0,0,1-.842.847c-5.218,4.716-21.049,4.94-21.049,4.94.556-6.3,2.644-11.714,8.14-15.518a15.71,15.71,0,0,0-.04,2.577,19.077,19.077,0,0,0,1.608-3.567,28.442,28.442,0,0,1,5.326-2.32c1.514-.494,2.854-1,4.039-1.505a5.755,5.755,0,0,0,1.036,2.76A17.6,17.6,0,0,0,40.371,11.4h0c4.8-2.531,5.954-4.746,6.022-4.883-.6,10.719-1.567,14.617-4.972,19.557Z" transform="translate(-8.878)" fill="url(#a)"/><path d="M109.063,42.975a.482.482,0,0,1-.117-.014.472.472,0,0,1-.341-.574c.159-.627.3-1.28.428-2a.472.472,0,1,1,.93.168c-.133.738-.278,1.411-.442,2.06A.472.472,0,0,1,109.063,42.975Z" transform="translate(-74.554 -24.448)" fill="#dfdfe5"/><path d="M32.079,53.33c-.2-.291-6.994,4.369-7.168,4.5-1.282.94-2.733,1.719-4.022,2.628C15.093,64.537,9.6,68.4,6.611,73.538a.836.836,0,0,0,.245,1.121.806.806,0,0,0,1.134-.273c2.813-4.847,8.172-8.622,13.831-12.608,1.3-.914,2.61-1.839,3.9-2.787.358-.264,6.559-5.37,6.356-5.661Z" transform="translate(0 -37.247)" fill="#f6f4f7"/></g><path d="M30.467,47H58v2c0,4.418-4.522,11-8.867,11H26.418c1.951-2.194,4.567-3.392,4.048-11Z" transform="translate(-1657 -1069)" fill="#bbb"/><path d="M7.933,4H9.507s2.1.416,2.36,4v2H4V8A3.967,3.967,0,0,1,7.933,4Z" transform="translate(-1657 -1069)" fill="#333"/></g></svg>