<?xml version="1.0" standalone="no"?>
<!DOCTYPE svg PUBLIC "-//W3C//DTD SVG 20010904//EN"
 "http://www.w3.org/TR/2001/REC-SVG-20010904/DTD/svg10.dtd">
<svg version="1.0" xmlns="http://www.w3.org/2000/svg"
 width="128.000000pt" height="128.000000pt" viewBox="0 0 128.000000 128.000000"
 preserveAspectRatio="xMidYMid meet">
<metadata>
Created by potrace 1.11, written by Peter Selinger 2001-2013
</metadata>
<g transform="translate(0.000000,128.000000) scale(0.100000,-0.100000)"
fill="#000000" stroke="none">
<path d="M5 1168 c10 -43 31 -73 69 -101 34 -24 22 -23 526 -30 l215 -2 67
-33 c98 -48 183 -143 210 -237 17 -58 18 -65 19 -125 3 -168 -101 -313 -271
-376 -36 -13 -89 -17 -275 -18 -126 -2 -234 -1 -240 1 -6 2 -10 95 -9 254 1
236 0 253 -20 292 -15 30 -34 49 -66 65 l-45 23 105 -3 105 -3 1 -122 c1 -101
-1 -123 -13 -123 -9 0 -13 -8 -11 -22 2 -13 9 -22 15 -21 8 2 11 -28 10 -97
-1 -163 11 -171 233 -166 175 4 190 7 260 54 212 142 180 461 -56 557 -58 24
-63 24 -406 25 -288 0 -348 -2 -348 -13 0 -20 31 -53 57 -61 l23 -7 0 -318 0
-317 82 -80 83 -80 230 1 c179 1 244 5 294 19 156 40 282 139 355 277 161 303
24 659 -301 786 l-68 27 -418 4 -419 3 7 -33z m821 -315 c175 -93 166 -342
-16 -426 -38 -18 -67 -21 -190 -23 l-145 -2 1 85 c1 48 6 89 13 96 13 13 15
47 2 47 -11 0 -20 46 -11 60 4 6 20 12 36 13 19 2 30 9 32 20 2 11 -2 18 -10
16 -30 -4 -49 2 -45 14 2 6 14 12 28 12 15 0 25 7 27 18 3 14 -4 17 -35 17
-36 0 -39 2 -37 28 1 15 3 33 3 40 1 11 31 13 154 10 133 -3 157 -6 193 -25z"/>
</g>
</svg>
